# xmcd
#
# Track frame offsets: 
#        150
#        20216
#        42922
#        61621
#        79953
#        97340
#        115194
#        134040
#        153306
#        168579
#        188616
#        207155
#        223947
#        247811
#        267667
#
# Disc length: 3775 seconds
#
# Revision: 0
# Processed by: cddbd v1.5.2PL0 Copyright (c) Steve Scherf et al.
# Submitted via: ExactAudioCopy v1.0b6
#
DISCID=df0ebd0f
DTITLE=長山洋子 - 長山洋子 30周年記念 演歌シングルコレクション Disc 1 VICL-64060-2
DYEAR=2013
DGENRE=JPop
TTITLE0=蜩 -ひぐらし-
TTITLE1=海に降る雪
TTITLE2=なみだ酒
TTITLE3=蒼月
TTITLE4=めおと酒
TTITLE5=私が生まれて育ったところ
TTITLE6=捨てられて
TTITLE7=倖せにしてね
TTITLE8=ヨコハマ・シルエット 
TTITLE9=たてがみ
TTITLE10=あの頃のなみだは 
TTITLE11=お江戸の色女 
TTITLE12=浪花夢情話 (新編 桂 春団治) 
TTITLE13=ムーンライトジェラシー
TTITLE14=恋のプラットホーム
EXTD=
EXTT0=
EXTT1=
EXTT2=
EXTT3=
EXTT4=
EXTT5=
EXTT6=
EXTT7=
EXTT8=
EXTT9=
EXTT10=
EXTT11=
EXTT12=
EXTT13=
EXTT14=
PLAYORDER=
